<svg version="1" xmlns="http://www.w3.org/2000/svg" width="666.667" height="666.667" viewBox="0 0 500.000000 500.000000"><path d="M494.5 116.9c-.6.4-5 3-10 5.6-13.2 7-39.2 23-41.5 25.5-.3.3-4.5 3.6-9.3 7.4-4.8 3.7-14 11.9-20.3 18.2-6.3 6.3-11.9 11.4-12.4 11.4s-3.3-2.4-6.2-5.3c-18-17.6-34.8-25.5-62.8-29.3-5.2-.7-25.7-.7-32 0-7.2.8-24.4 3.7-24.9 4.2-.2.2 2.9.4 7 .5 16.1.2 28.5 1.7 43.8 5.3 11.6 2.7 26.8 10 35.4 17.1 10.7 8.9 18.5 19.5 27.7 37.9 2.7 5.4 5.3 9.2 6.6 9.8 5.2 2.4 10.3-1.5 18-13.6 11-17.3 25.2-38.5 30.6-45.6 5.4-7.2 20.2-22.4 29.8-30.6 2.5-2.2 4.7-4.1 5-4.4.3-.3 4.2-3.6 8.8-7.4 7.3-6 8.9-7.6 7.9-7.6-.2 0-.7.4-1.2.9zM11.1 193.8c-.6.2-2.4 4.9-4.1 10.5-4.3 14-4.2 13.7-3.2 13.7.6 0 .4 3.2-.5 7.6-.8 4.2-1.2 7.8-1 8 .2.3 1.7.6 3.3.9 1.6.2 4.8 1 7.1 1.9 4.3 1.5 6.8 2 18.1 3.1 3.4.4 6.5 1.1 6.8 1.6.9 1.5 7.2 3.8 17.9 6.5 8.1 2.1 13.5 4.2 17.3 7 .2.1-.1 1.9-.7 4-1.1 4.4-1.7 9.1-2.7 21.4-.4 4.7-.8 9.2-1 10-.1.8-.3 1.9-.3 2.3-.1.5-8.9.7-19.6.4l-19.5-.5-.1 6.6c0 3.7-.3 13-.5 20.8l-.5 14 5.3.3c2.9.1 5.7.6 6.3 1.1.5.5 3.7.9 7 1 8.1.2 8.7.1 8.1-.9-.4-.6 5.6-.7 14.9-.5 8.5.3 15.6.1 15.6-.3.2-1.5.7-16.7.8-24.9l.1-8 5.5.2 5.5.2v-4.3c0-3.3.4-4.4 1.8-4.7 1.4-.4 2.2-3 4.1-12.9 3.2-17.8 3.5-18.6 7.9-19.9 4.8-1.3 5.2-1.3 7.1.4.9.7 4.3 2.1 7.6 3.1 3.3.9 6.6 1.9 7.3 2.1.8.2 1.6 1.3 1.9 2.3.7 2.8 6.8 4.9 15.8 5.7 4.4.3 8.4.8 8.8 1.1.5.3 1.1-.4 1.4-1.5.5-2.2.2-2.2 11.7-.3 3.7.6 4.1 1 5.2 5.1.6 2.5 2.7 9.9 4.7 16.5s5.3 18 7.5 25.3c2.1 7.3 4.1 13.5 4.4 13.8.3.3 2.9.1 5.7-.4 2.8-.5 5.1-.6 5.1-.1 0 .4.8.6 1.8.4 1.1-.2 4.3-.6 7.3-1s5.6-1 5.9-1.5c.3-.4 2.8-1.1 5.5-1.6 4.6-.8 5-1.2 5.3-3.9.3-3.4-2-2.3 24.3-11.5l11.6-4.1-.8-5.7c-.4-3.1-1.1-8.2-1.4-11.2-.4-3-.8-5.6-.9-5.7-.4-.5-6.7-1.2-15.3-1.8-8.7-.6-9.3-.5-9.3 1.2 0 1.6-.7 1.9-3.5 1.8-2-.1-3.8-.5-4.2-.9-.3-.3-.8-6.8-1-14.3-.3-8.1-.9-14.3-1.6-15.1-.6-.8-.7-1.6-.1-2 1.3-1 4.4-7.1 4.4-8.7 0-1.5 1.9-1.9 15.6-3.6 11-1.4 10.4-.9 14.9-9.6 2-3.7 2.3-5.5 2.1-14.2-.2-9.5-.4-10.4-3.6-16.1-3.6-6.2-4.1-6.5-12-7.4-2.5-.2-6.3-.7-8.5-1-12.1-1.7-11.6-1.8-16.2 3-4.1 4.2-4.6 4.4-10.1 4.5-3.1 0-15 .2-26.4.3-11.4.1-21 .5-21.3.8-.4.3-1.6 4.2-2.7 8.5s-2.4 8.1-3 8.4c-.6.4-7 .8-14.2.9-7.2.1-17.7.3-23.3.4l-10.1.2-1.4-5-1.3-5.1H85.7l-1.4 3.1-1.5 3.1-11.7-2.9c-6.4-1.5-12.5-3-13.6-3.2-9.4-2.3-21.4-5.4-22.2-5.9-.5-.3-1.8-3.5-2.7-7.1l-1.8-6.5-9.4.2c-5.1.1-9.8.3-10.3.5zM324.6 228.1c-7.6 1.8-12.1 7.3-9.6 12 1.8 3.2 8.9 7.8 15.5 9.8 14.2 4.4 22.1 10.7 27.3 21.9 3.6 7.8 3.7 20.7.2 29.7-9.9 25.6-42.1 51.3-85 67.9-5.2 2.1-10.4 4.1-11.5 4.6-1.1.5-7.4 2.5-14 4.5-21.6 6.6-21.6 6.6-9.5 6 11.8-.6 16.9-1.1 22-1.9 1.9-.4 6.2-1.1 9.5-1.7 11.1-1.9 32.1-7.8 43.6-12.2 28.5-11.1 49-23.6 65-39.8 21.1-21.3 34.3-50.8 26.9-60.1-3.6-4.7-10.7-3.8-14.1 1.8l-1.6 2.6-.8-4.3c-.4-2.4-.9-4.6-.9-4.9-.1-.3-1.3-3-2.8-6.1-3.7-7.5-11.1-15.8-18.1-20.4-11.7-7.7-30.8-11.9-42.1-9.4z"/></svg>